<?xml version="1.0" encoding="utf-8"?><!-- Uploaded to: SVG Repo, www.svgrepo.com, Generator: SVG Repo Mixer Tools -->
<svg width="800px" height="800px" viewBox="0 0 24 24" fill="none" xmlns="http://www.w3.org/2000/svg">
<path d="M12 21C10.22 21 8.47991 20.4722 6.99987 19.4832C5.51983 18.4943 4.36628 17.0887 3.68509 15.4442C3.0039 13.7996 2.82567 11.99 3.17294 10.2442C3.5202 8.49836 4.37737 6.89472 5.63604 5.63604C6.89472 4.37737 8.49836 3.5202 10.2442 3.17294C11.99 2.82567 13.7996 3.0039 15.4442 3.68509C17.0887 4.36628 18.4943 5.51983 19.4832 6.99987C20.4722 8.47991 21 10.22 21 12C21 14.387 20.0518 16.6761 18.364 18.364C16.6761 20.0518 14.387 21 12 21ZM12 4.5C10.5166 4.5 9.0666 4.93987 7.83323 5.76398C6.59986 6.58809 5.63856 7.75943 5.07091 9.12988C4.50325 10.5003 4.35473 12.0083 4.64411 13.4632C4.9335 14.918 5.64781 16.2544 6.6967 17.3033C7.7456 18.3522 9.08197 19.0665 10.5368 19.3559C11.9917 19.6453 13.4997 19.4968 14.8701 18.9291C16.2406 18.3614 17.4119 17.4001 18.236 16.1668C19.0601 14.9334 19.5 13.4834 19.5 12C19.5 10.0109 18.7098 8.10323 17.3033 6.6967C15.8968 5.29018 13.9891 4.5 12 4.5Z" fill="#000000"/>
<path d="M12 16.75C11.9015 16.7505 11.8038 16.7313 11.7128 16.6935C11.6218 16.6557 11.5393 16.6001 11.47 16.53L7.47003 12.53C7.33755 12.3879 7.26543 12.1998 7.26885 12.0055C7.27228 11.8112 7.35099 11.6258 7.48841 11.4884C7.62582 11.351 7.81121 11.2723 8.00551 11.2689C8.19981 11.2654 8.38785 11.3376 8.53003 11.47L12 14.94L15.47 11.47C15.6122 11.3376 15.8003 11.2654 15.9946 11.2689C16.1889 11.2723 16.3742 11.351 16.5117 11.4884C16.6491 11.6258 16.7278 11.8112 16.7312 12.0055C16.7346 12.1998 16.6625 12.3879 16.53 12.53L12.53 16.53C12.4608 16.6001 12.3782 16.6557 12.2872 16.6935C12.1962 16.7313 12.0986 16.7505 12 16.75Z" fill="#000000"/>
<path d="M12 16.75C11.8019 16.7474 11.6126 16.6676 11.4725 16.5275C11.3324 16.3874 11.2526 16.1981 11.25 16V8C11.25 7.80109 11.329 7.61032 11.4697 7.46967C11.6103 7.32902 11.8011 7.25 12 7.25C12.1989 7.25 12.3897 7.32902 12.5303 7.46967C12.671 7.61032 12.75 7.80109 12.75 8V16C12.7474 16.1981 12.6676 16.3874 12.5275 16.5275C12.3874 16.6676 12.1981 16.7474 12 16.75Z" fill="#000000"/>
</svg>